<svg xmlns="http://www.w3.org/2000/svg" viewBox="0 0 24 24">
  <path d="M18.125 14.5c-.256.656-.375 1.219-.875 1.906-.625.844-1.531 1.469-2.625 1.469-1.188 0-1.719-.688-2.625-.688-.938 0-1.5.688-2.656.688-1.094 0-2-.656-2.625-1.5-1.469-2.125-1.625-6.156.75-8.781.719-.781 1.688-1.25 2.656-1.25 1 0 1.625.656 2.469.656.813 0 1.313-.656 2.5-.656 1.031 0 1.906.469 2.625 1.25-.219.125-1.563.906-1.563 2.719 0 2.156 1.875 2.875 1.969 2.875v.313zm-5.031-9.375c-.5.594-1.313 1.031-2.094 1-.125-.875.313-1.781.781-2.375.531-.656 1.406-1.125 2.156-1.156.094.906-.25 1.781-.843 2.531z" fill="#000000"/>
</svg>
